<svg version="1.1" id="Layer_1" xmlns:x="ns_extend;" xmlns:i="ns_ai;" xmlns:graph="ns_graphs;" xmlns="http://www.w3.org/2000/svg" xmlns:xlink="http://www.w3.org/1999/xlink" x="0px" y="0px" viewBox="0 0 280.1 55" style="enable-background:new 0 0 280.1 55;" xml:space="preserve">
 <style type="text/css">
  .st0{fill:#FFFFFF;}
 </style>
 <metadata>
  <sfw xmlns="ns_sfw;">
   <slices>
   </slices>
   <sliceSourceBounds bottomLeftOrigin="true" height="55" width="280.1" x="813.4" y="-92.5">
   </sliceSourceBounds>
  </sfw>
 </metadata>
 <g>
  <g>
   <path class="st0" d="M50.6,2l-3.3-1.6c-2-0.9-4.3-0.1-5.2,1.9l-0.9,1.8L26.5,35.4L11.8,4l-0.9-1.8c-0.9-2-3.3-2.8-5.2-1.9L2.3,2
			c-1.9,0.9-2.9,3.4-2,5.4L1.2,9l19.9,42.6c1,2.1,3,3.4,5.3,3.4h0h0.1h0c2.3,0,4.3-1.3,5.3-3.4L51.7,9l0.8-1.6
			C53.5,5.4,52.6,2.9,50.6,2z">
   </path>
   <path class="st0" d="M81.9,53l3.3,1.6c2,0.9,4.3,0.1,5.2-1.9l0.9-1.8l14.6-31.3l14.6,31.3l0.9,1.8c0.9,2,3.3,2.8,5.2,1.9l3.3-1.6
			c2-0.9,2.9-3.4,2-5.4l-0.8-1.6L111.5,3.4c-1-2.1-3-3.4-5.3-3.4h0H106h0c-2.3,0-4.3,1.3-5.3,3.4L80.8,46L80,47.6
			C79,49.6,80,52.1,81.9,53z">
   </path>
   <path class="st0" d="M200.6,11.8c2.2,0.1,4-1.6,4.1-3.8l0.1-3.7c0.1-2.2-1.7-4.2-3.9-4.3l-2,0h-23c-0.1,0-0.2,0-0.4,0
			c-6.1,0.4-15.1,4.8-15.1,15.2c0,10.6,8.9,15.3,13.7,16.3l12,2.9c0.2,0,0.3,0.1,0.5,0.1c0.6,0.1,3.8,0.7,3.8,4.3
			c0,2.1-1.1,3.4-3.2,3.8h-22.6l-1.5,0c-2.2-0.1-4,1.6-4.1,3.8l-0.1,3.7c-0.1,2.2,1.7,4.2,3.9,4.3l1.9,0h23c0.2,0,0.4,0,0.5,0
			c5.6-0.5,14-5.1,14-15.5c0-10.8-8.7-15.1-13.6-15.9l-11.8-2.8c0,0-0.1,0-0.1,0c-0.2,0-4.5-1-4.5-4.8c0-2.6,2.5-3.3,4-3.4h22.7
			L200.6,11.8z">
   </path>
   <path class="st0" d="M280.1,3.9c0-2.2-1.8-3.9-4-3.9h-1.9h-36.8h-1.9c-2.2,0-4,1.7-4,3.9v3.7c0,2.2,1.8,4.1,4,4.2h2.7h11.7v36.7
			l0,0v1.9c0,2.2,1.7,4,3.9,4h3.7c2.2,0,4.1-1.8,4.2-4v-1.9l0,0V11.8h11.7h2.7c2.2,0,4-2,4-4.2L280.1,3.9z">
   </path>
  </g>
 </g>
</svg>