<svg width="637" height="128" viewBox="0 0 637 128" fill="none" xmlns="http://www.w3.org/2000/svg">
<path d="M58.1657 35.5477C58.97 33.6634 58.8547 31.4342 57.4059 29.9855C48.3575 20.9369 34.884 19.74 27.3121 27.312C19.7401 34.884 20.9371 48.3575 29.9855 57.406C31.4337 58.8542 33.662 58.9696 35.5455 58.1655C36.0711 57.9411 36.6012 57.7307 37.1351 57.5345C39.6589 56.6073 41.7361 54.714 43.0505 52.3684C45.2213 48.4946 48.4358 45.2846 52.313 43.1192C54.6818 41.7964 56.5946 39.7008 57.5288 37.1535C57.7267 36.6142 57.9391 36.0786 58.1657 35.5477Z" fill="#091000"/>
<path d="M37.0903 70.4486C39.6037 71.3761 41.6657 73.2735 42.9565 75.6212C45.1492 79.6094 48.443 82.9067 52.4284 85.1038C54.7559 86.3868 56.6362 88.4325 57.5577 90.9254C57.7472 91.4382 57.9499 91.9474 58.1655 92.4525C58.9697 94.3367 58.8544 96.5656 57.4058 98.0142C48.3573 107.063 34.8838 108.26 27.3119 100.688C19.74 93.1157 20.9369 79.6421 29.9853 70.5936C31.4336 69.1453 33.662 69.03 35.5457 69.8341C36.0565 70.0522 36.5716 70.2571 37.0903 70.4486Z" fill="#091000"/>
<path d="M70.4436 90.9218C71.365 88.428 73.245 86.3811 75.5724 85.0961C79.5481 82.901 82.8345 79.6105 85.0247 75.6317C86.3189 73.2805 88.3851 71.3804 90.9032 70.4517C91.4243 70.2595 91.9419 70.0537 92.4551 69.8346C94.3385 69.0305 96.5666 69.1458 98.0147 70.5939C107.063 79.6424 108.26 93.116 100.688 100.688C93.1162 108.26 79.6427 107.063 70.5943 98.0145C69.1455 96.5657 69.0302 94.3366 69.8345 92.4522C70.0506 91.9461 70.2537 91.4357 70.4436 90.9218Z" fill="#091000"/>
<path d="M90.8586 57.5325C88.3303 56.6042 86.249 54.7082 84.9313 52.3592C82.7632 48.4942 79.5559 45.2907 75.6881 43.1272C73.3195 41.8023 71.4071 39.7054 70.473 37.1573C70.2748 36.6165 70.0618 36.0795 69.8346 35.5472C69.0304 33.6632 69.1458 31.4346 70.5943 29.9861C79.6427 20.9376 93.1162 19.7407 100.688 27.3126C108.26 34.8846 107.063 48.3582 98.0147 57.4067C96.5666 58.8548 94.3385 58.9702 92.4551 58.1661C91.9273 57.9407 91.3948 57.7294 90.8586 57.5325Z" fill="#091000"/>
<path fill-rule="evenodd" clip-rule="evenodd" d="M0 33.5615C0 21.8139 0 15.9401 2.28624 11.4531C4.29728 7.50619 7.50619 4.29728 11.4531 2.28624C15.9401 0 21.8139 0 33.5615 0H94.4385C106.186 0 112.06 0 116.547 2.28624C120.494 4.29728 123.703 7.50619 125.714 11.4531C128 15.9401 128 21.8139 128 33.5615V94.4385C128 106.186 128 112.06 125.714 116.547C123.703 120.494 120.494 123.703 116.547 125.714C112.06 128 106.186 128 94.4385 128H33.5615C21.8139 128 15.9401 128 11.4531 125.714C7.50619 123.703 4.29728 120.494 2.28624 116.547C0 112.06 0 106.186 0 94.4385V33.5615ZM22.1401 22.14C10.8871 33.3931 13.81 51.5743 24.8136 62.578C25.5934 63.3578 25.5932 64.6418 24.8134 65.4216C13.8098 76.4253 10.8869 94.6066 22.1399 105.86C33.393 117.113 51.5741 114.19 62.5777 103.186C63.3577 102.406 64.6423 102.406 65.4223 103.187C76.4259 114.19 94.607 117.113 105.86 105.86C117.113 94.6069 114.19 76.4256 103.187 65.4219C102.407 64.6422 102.407 63.3584 103.187 62.5787C114.19 51.575 117.113 33.3938 105.86 22.1407C94.607 10.8876 76.4259 13.8105 65.4223 24.8142C64.6424 25.5941 63.3578 25.5934 62.5779 24.8135C51.5743 13.8098 33.3932 10.8869 22.1401 22.14Z" fill="#091000"/>
<path d="M446.821 102.606C452.757 106.202 459.741 108 467.772 108C473.708 108 479.237 107.003 484.358 105.01C489.479 102.978 494.096 100.359 498.208 97.1539L498.325 62.5636H468.82V72.5889H487.85L487.791 91.5843C486.395 92.9132 484.552 94.0466 482.263 94.9847C479.974 95.9227 477.549 96.6458 474.988 97.1539C472.428 97.6229 470.003 97.8574 467.714 97.8574C462.321 97.8574 457.491 96.5676 453.223 93.988C448.994 91.3693 445.658 87.539 443.213 82.497C440.769 77.455 439.547 71.2796 439.547 63.9707C439.547 58.5379 440.226 53.7304 441.584 49.5483C442.942 45.3271 444.823 41.7899 447.229 38.9367C449.673 36.0444 452.486 33.8556 455.667 32.3704C458.887 30.8852 462.36 30.1426 466.084 30.1426C469.072 30.1426 471.749 30.6116 474.115 31.5496C476.482 32.4486 478.519 33.6798 480.226 35.2432C481.972 36.7675 483.368 38.4872 484.416 40.4024C485.464 42.2785 486.123 44.1936 486.395 46.1479H497.626C496.773 40.207 494.872 35.3018 491.923 31.4324C489.013 27.563 485.367 24.6902 480.982 22.8141C476.598 20.938 471.807 20 466.608 20C458.965 20 452.253 21.7979 446.472 25.3937C440.73 28.9505 436.269 34.0315 433.087 40.6369C429.906 47.2032 428.315 54.9811 428.315 63.9707C428.315 72.9602 429.925 80.7577 433.145 87.3631C436.366 93.9294 440.924 99.0104 446.821 102.606Z" fill="#091000"/>
<path fill-rule="evenodd" clip-rule="evenodd" d="M246.633 107.531C242.598 107.531 239.107 106.769 236.158 105.245C233.248 103.681 230.998 101.571 229.407 98.9127C227.856 96.2549 227.08 93.2454 227.08 89.8841C227.08 86.4055 227.759 83.4741 229.116 81.0899C230.474 78.6667 232.434 76.6929 234.994 75.1686C237.555 73.6051 240.659 72.4326 244.306 71.6509C246.711 71.1037 249.252 70.6738 251.929 70.3611C254.645 70.0484 257.244 69.7944 259.727 69.5989C262.21 69.4035 264.325 69.2667 266.071 69.1885V65.6123C266.071 60.4921 265.004 56.8181 262.87 54.5903C260.736 52.3233 257.419 51.1899 252.919 51.1899C250.125 51.1899 247.661 51.5612 245.528 52.3038C243.433 53.0464 241.803 54.4339 240.639 56.4664C239.475 58.4597 238.913 61.3911 238.952 65.2605H228.825C228.36 59.984 229.097 55.6065 231.037 52.1279C232.977 48.6103 235.887 45.9916 239.766 44.2718C243.646 42.513 248.243 41.6336 253.559 41.6336C256.585 41.6336 259.475 42.0049 262.23 42.7475C264.984 43.451 267.429 44.6627 269.563 46.3824C271.696 48.0631 273.384 50.3691 274.626 53.3005C275.867 56.2318 276.488 59.9058 276.488 64.3225V106.827H265.954L266.071 92.9327C265.101 97.3493 262.909 100.887 259.495 103.544C256.119 106.202 251.832 107.531 246.633 107.531ZM249.136 98.9127C251.968 98.9127 254.567 98.3851 256.934 97.3298C259.339 96.2745 261.357 94.926 262.986 93.2845C264.616 91.6429 265.644 89.9622 266.071 88.2425V75.8135C263.821 75.9698 261.318 76.2434 258.563 76.6342C255.809 76.986 253.384 77.4159 251.289 77.924C247.099 78.9012 243.976 80.2105 241.919 81.8521C239.902 83.4937 238.893 85.8583 238.893 88.946C238.893 90.783 239.281 92.4637 240.057 93.988C240.872 95.4732 242.036 96.6653 243.549 97.5643C245.062 98.4242 246.924 98.8736 249.136 98.9127Z" fill="#091000"/>
<path d="M301.274 59.0875L300.505 42.8648H291.31V106.827H302.135V63.6775C303.221 61.0979 304.599 59.0069 306.267 57.4044C307.935 55.7628 309.739 54.5707 311.679 53.8281C313.619 53.0855 315.539 52.7142 317.44 52.7142C318.372 52.7142 319.361 52.7728 320.408 52.8901C321.495 52.9682 322.523 53.1637 323.493 53.4763V41.9267C322.911 41.8095 322.309 41.7117 321.689 41.6336C321.107 41.5554 320.486 41.5163 319.826 41.5163C316.412 41.5163 313.522 42.2199 311.155 43.6269C308.827 45.034 306.907 46.8905 305.394 49.1965C303.92 51.4635 302.775 53.9063 301.96 56.525C301.704 57.3898 301.475 58.244 301.274 59.0875Z" fill="#091000"/>
<path d="M347.84 54.5903C345.241 56.5054 343.107 59.1437 341.439 62.505V106.827H330.556V42.8648H339.751L340.553 58.6653C341.133 56.2017 341.972 53.9053 343.068 51.7761C344.659 48.6493 346.909 46.1674 349.819 44.3304C352.729 42.4544 356.395 41.5163 360.818 41.5163C365.978 41.5163 370.071 42.982 373.097 45.9134C375.975 48.629 377.81 52.7227 378.601 58.1946C379.122 56.1729 379.828 54.2289 380.721 52.3624C382.273 49.1184 384.484 46.4997 387.355 44.5063C390.265 42.513 393.912 41.5163 398.296 41.5163C404.077 41.5163 408.577 43.3533 411.798 47.0273C415.057 50.7013 416.686 56.1341 416.686 63.3258V106.827H405.862V66.9021C405.862 63.3062 405.474 60.3944 404.698 58.1666C403.922 55.9387 402.7 54.3167 401.031 53.3005C399.402 52.2452 397.229 51.7175 394.513 51.7175C391.099 51.7175 388.093 52.6751 385.493 54.5903C382.894 56.5054 380.74 59.1437 379.033 62.505V106.827H368.209V66.9607C368.209 63.3258 367.821 60.3944 367.045 58.1666C366.308 55.9387 365.105 54.3167 363.437 53.3005C361.769 52.2452 359.577 51.7175 356.861 51.7175C353.447 51.7175 350.44 52.6751 347.84 54.5903Z" fill="#091000"/>
<path fill-rule="evenodd" clip-rule="evenodd" d="M528.203 75.9307C527 75.9307 525.894 75.5789 524.886 74.8754C523.877 74.1328 523.373 73.1557 523.373 71.944V106.827H512.49V21.5829H538.038C547.737 21.5829 555.07 23.7131 560.036 27.9734C565.041 32.1945 567.543 38.7413 567.543 47.6136C567.543 51.4439 566.981 55.0593 565.856 58.4597C564.769 61.8601 563.043 64.8696 560.676 67.4883C558.348 70.107 555.322 72.1785 551.598 73.7029C547.873 75.1881 543.411 75.9307 538.213 75.9307H528.203ZM548.979 63.8534C546.573 65.2214 543.586 65.9054 540.017 65.9054H523.373V31.8428H539.086C544.517 31.8428 548.765 33.1326 551.83 35.7122C554.895 38.2527 556.428 42.4153 556.428 48.1999C556.428 51.952 555.788 55.157 554.507 57.8148C553.266 60.4335 551.423 62.4464 548.979 63.8534Z" fill="#091000"/>
<path d="M591.142 104.248C595.759 106.749 601.016 108 606.913 108C612.538 108 617.621 106.749 622.16 104.248C626.699 101.746 630.307 97.9551 632.984 92.8741C635.661 87.793 637 81.3831 637 73.6442V21.5829H625.943V73.7615C625.943 78.3344 625.419 82.1648 624.371 85.2525C623.324 88.3402 621.888 90.8026 620.065 92.6396C618.28 94.4766 616.263 95.8055 614.013 96.6262C611.762 97.4079 609.415 97.7988 606.971 97.7988C604.41 97.7988 601.966 97.4079 599.638 96.6262C597.31 95.8055 595.215 94.4766 593.353 92.6396C591.53 90.8026 590.075 88.3402 588.988 85.2525C587.941 82.1648 587.417 78.3344 587.417 73.7615V21.5829H576.302V73.6442C576.302 81.3831 577.621 87.793 580.259 92.8741C582.897 97.9551 586.525 101.746 591.142 104.248Z" fill="#091000"/>
<path d="M176 106.827V21.5829H224.477V31.8428H186.824V58.7528H220.869V68.7781H186.824V106.827H176Z" fill="#091000"/>
</svg>
