<svg width="638" height="129" viewBox="0 0 638 129" fill="none" xmlns="http://www.w3.org/2000/svg">
<path fill-rule="evenodd" clip-rule="evenodd" d="M94.9385 6.45908H34.0615C28.0894 6.45908 23.9686 6.46371 20.7698 6.72506C17.6405 6.98074 15.9219 7.45207 14.6584 8.09582C11.8328 9.53553 9.53553 11.8328 8.09582 14.6584C7.45207 15.9219 6.98074 17.6405 6.72506 20.7698C6.46371 23.9686 6.45908 28.0893 6.45908 34.0615V94.9385C6.45908 100.911 6.46371 105.031 6.72506 108.23C6.98074 111.359 7.45207 113.078 8.09582 114.342C9.53553 117.167 11.8328 119.464 14.6584 120.904C15.9219 121.548 17.6405 122.019 20.7698 122.275C23.9686 122.536 28.0893 122.541 34.0615 122.541H94.9385C100.911 122.541 105.031 122.536 108.23 122.275C111.359 122.019 113.078 121.548 114.342 120.904C117.167 119.464 119.464 117.167 120.904 114.342C121.548 113.078 122.019 111.359 122.275 108.23C122.536 105.031 122.541 100.911 122.541 94.9385V34.0615C122.541 28.0894 122.536 23.9686 122.275 20.7698C122.019 17.6405 121.548 15.9219 120.904 14.6584C119.464 11.8328 117.167 9.53553 114.342 8.09582C113.078 7.45207 111.359 6.98074 108.23 6.72506C105.031 6.46371 100.911 6.45908 94.9385 6.45908ZM2.78624 11.9531C0.5 16.4401 0.5 22.3139 0.5 34.0615V94.9385C0.5 106.686 0.5 112.56 2.78624 117.047C4.79728 120.994 8.00619 124.203 11.9531 126.214C16.4401 128.5 22.3139 128.5 34.0615 128.5H94.9385C106.686 128.5 112.56 128.5 117.047 126.214C120.994 124.203 124.203 120.994 126.214 117.047C128.5 112.56 128.5 106.686 128.5 94.9385V34.0615C128.5 22.3139 128.5 16.4401 126.214 11.9531C124.203 8.00619 120.994 4.79728 117.047 2.78624C112.56 0.5 106.686 0.5 94.9385 0.5H34.0615C22.3139 0.5 16.4401 0.5 11.9531 2.78624C8.00619 4.79728 4.79728 8.00619 2.78624 11.9531Z" fill="#FAFFF5"/>
<path fill-rule="evenodd" clip-rule="evenodd" d="M25.3136 63.078C14.31 52.0744 11.3871 33.8931 22.6401 22.64C33.8932 11.3869 52.0743 14.3098 63.0779 25.3135C63.8578 26.0934 65.1424 26.0941 65.9223 25.3142C76.9259 14.3105 95.107 11.3876 106.36 22.6407C117.613 33.8938 114.69 52.075 103.687 63.0787C102.907 63.8585 102.907 65.1422 103.687 65.922C114.69 76.9256 117.613 95.1069 106.36 106.36C95.107 117.613 76.9259 114.69 65.9223 103.687C65.1423 102.906 63.8577 102.906 63.0777 103.686C52.0741 114.69 33.893 117.613 22.6399 106.36C11.3869 95.1066 14.3098 76.9253 25.3134 65.9216C26.0932 65.1418 26.0934 63.8578 25.3136 63.078ZM57.9059 30.4855C59.3547 31.9342 59.47 34.1634 58.6657 36.0477C58.439 36.5786 58.2267 37.1142 58.0288 37.6535C57.0946 40.2008 55.1818 42.2964 52.813 43.6193C48.9357 45.7846 45.7213 48.9946 43.5505 52.8685C42.236 55.214 40.1589 57.1073 37.6351 58.0345C37.1012 58.2307 36.5711 58.4411 36.0455 58.6655C34.162 59.4696 31.9337 59.3543 30.4855 57.9061C21.4371 48.8576 20.2401 35.384 27.8121 27.812C35.384 20.24 48.8575 21.4369 57.9059 30.4855ZM43.4565 76.1212C42.1657 73.7735 40.1037 71.8762 37.5903 70.9486C37.0716 70.7571 36.5565 70.5522 36.0457 70.3342C34.162 69.53 31.9336 69.6453 30.4853 71.0936C21.4369 80.1421 20.2399 93.6157 27.8119 101.188C35.3838 108.76 48.8573 107.563 57.9057 98.5142C59.3544 97.0656 59.4697 94.8367 58.6655 92.9525C58.4499 92.4474 58.2472 91.9382 58.0577 91.4255C57.1362 88.9326 55.2559 86.8868 52.9284 85.6038C48.943 83.4067 45.6492 80.1094 43.4565 76.1212ZM76.0724 85.5961C73.745 86.8811 71.865 88.9281 70.9436 91.4218C70.7537 91.9357 70.5505 92.4461 70.3345 92.9522C69.5302 94.8366 69.6455 97.0658 71.0943 98.5145C80.1427 107.563 93.6162 108.76 101.188 101.188C108.76 93.616 107.563 80.1424 98.5147 71.0939C97.0666 69.6458 94.8385 69.5305 92.9551 70.3346C92.4419 70.5537 91.9243 70.7595 91.4032 70.9517C88.8851 71.8804 86.8189 73.7805 85.5247 76.1317C83.3345 80.1105 80.0481 83.401 76.0724 85.5961ZM85.4312 52.8592C86.749 55.2082 88.8302 57.1042 91.3586 58.0325C91.8948 58.2294 92.4272 58.4407 92.9551 58.6661C94.8385 59.4702 97.0666 59.3548 98.5147 57.9067C107.563 48.8582 108.76 35.3846 101.188 27.8126C93.6162 20.2407 80.1427 21.4376 71.0943 30.4861C69.6458 31.9346 69.5304 34.1633 70.3346 36.0472C70.5618 36.5796 70.7747 37.1165 70.973 37.6573C71.9071 40.2054 73.8195 42.3023 76.1881 43.6272C80.0559 45.7907 83.2632 48.9942 85.4312 52.8592Z" fill="#FAFFF5"/>
<path d="M447.321 103.106C453.257 106.702 460.241 108.5 468.272 108.5C474.208 108.5 479.737 107.503 484.858 105.51C489.979 103.478 494.596 100.859 498.708 97.6539L498.825 63.0636H469.32V73.0889H488.35L488.291 92.0843C486.895 93.4132 485.052 94.5466 482.763 95.4847C480.474 96.4227 478.049 97.1458 475.488 97.6539C472.928 98.1229 470.503 98.3574 468.214 98.3574C462.821 98.3574 457.991 97.0676 453.723 94.488C449.494 91.8693 446.158 88.039 443.713 82.997C441.269 77.955 440.047 71.7796 440.047 64.4707C440.047 59.0379 440.726 54.2304 442.084 50.0483C443.442 45.8271 445.323 42.2899 447.729 39.4367C450.173 36.5444 452.986 34.3556 456.167 32.8704C459.387 31.3852 462.86 30.6426 466.584 30.6426C469.572 30.6426 472.249 31.1116 474.615 32.0496C476.982 32.9486 479.019 34.1798 480.726 35.7432C482.472 37.2675 483.868 38.9872 484.916 40.9024C485.964 42.7785 486.623 44.6936 486.895 46.6479H498.126C497.273 40.707 495.372 35.8018 492.423 31.9324C489.513 28.063 485.867 25.1902 481.482 23.3141C477.098 21.438 472.307 20.5 467.108 20.5C459.465 20.5 452.753 22.2979 446.972 25.8937C441.23 29.4505 436.769 34.5315 433.587 41.1369C430.406 47.7032 428.815 55.4811 428.815 64.4707C428.815 73.4602 430.425 81.2577 433.645 87.8631C436.866 94.4294 441.424 99.5104 447.321 103.106Z" fill="#FAFFF5"/>
<path fill-rule="evenodd" clip-rule="evenodd" d="M247.133 108.031C243.098 108.031 239.607 107.269 236.658 105.745C233.748 104.181 231.498 102.071 229.907 99.4127C228.356 96.7549 227.58 93.7454 227.58 90.3841C227.58 86.9055 228.259 83.9741 229.616 81.5899C230.974 79.1667 232.934 77.1929 235.494 75.6686C238.055 74.1051 241.159 72.9326 244.806 72.1509C247.211 71.6037 249.752 71.1738 252.429 70.8611C255.145 70.5484 257.744 70.2944 260.227 70.0989C262.71 69.9035 264.825 69.7667 266.571 69.6885V66.1123C266.571 60.9921 265.504 57.3181 263.37 55.0903C261.236 52.8233 257.919 51.6899 253.419 51.6899C250.625 51.6899 248.161 52.0612 246.028 52.8038C243.933 53.5464 242.303 54.9339 241.139 56.9664C239.975 58.9597 239.413 61.8911 239.452 65.7605H229.325C228.86 60.484 229.597 56.1065 231.537 52.6279C233.477 49.1103 236.387 46.4916 240.266 44.7718C244.146 43.013 248.743 42.1336 254.059 42.1336C257.085 42.1336 259.975 42.5049 262.73 43.2475C265.484 43.951 267.929 45.1627 270.063 46.8824C272.196 48.5631 273.884 50.8691 275.126 53.8005C276.367 56.7318 276.988 60.4058 276.988 64.8225V107.327H266.454L266.571 93.4327C265.601 97.8493 263.409 101.387 259.995 104.044C256.619 106.702 252.332 108.031 247.133 108.031ZM249.636 99.4127C252.468 99.4127 255.067 98.8851 257.434 97.8298C259.839 96.7745 261.857 95.426 263.486 93.7845C265.116 92.1429 266.144 90.4622 266.571 88.7425V76.3135C264.321 76.4698 261.818 76.7434 259.063 77.1342C256.309 77.486 253.884 77.9159 251.789 78.424C247.599 79.4012 244.476 80.7105 242.419 82.3521C240.402 83.9937 239.393 86.3583 239.393 89.446C239.393 91.283 239.781 92.9637 240.557 94.488C241.372 95.9732 242.536 97.1653 244.049 98.0643C245.562 98.9242 247.424 99.3736 249.636 99.4127Z" fill="#FAFFF5"/>
<path d="M301.774 59.5875L301.005 43.3648H291.81V107.327H302.635V64.1775C303.721 61.5979 305.099 59.5069 306.767 57.9044C308.435 56.2628 310.239 55.0707 312.179 54.3281C314.119 53.5855 316.039 53.2142 317.94 53.2142C318.872 53.2142 319.861 53.2728 320.908 53.3901C321.995 53.4682 323.023 53.6637 323.993 53.9763V42.4267C323.411 42.3095 322.809 42.2117 322.189 42.1336C321.607 42.0554 320.986 42.0163 320.326 42.0163C316.912 42.0163 314.022 42.7199 311.655 44.1269C309.327 45.534 307.407 47.3905 305.894 49.6965C304.42 51.9635 303.275 54.4063 302.46 57.025C302.204 57.8898 301.975 58.744 301.774 59.5875Z" fill="#FAFFF5"/>
<path d="M348.34 55.0903C345.741 57.0054 343.607 59.6437 341.939 63.005V107.327H331.056V43.3648H340.251L341.053 59.1653C341.633 56.7017 342.472 54.4053 343.568 52.2761C345.159 49.1493 347.409 46.6674 350.319 44.8304C353.229 42.9544 356.895 42.0163 361.318 42.0163C366.478 42.0163 370.571 43.482 373.597 46.4134C376.475 49.129 378.31 53.2227 379.101 58.6946C379.622 56.6729 380.328 54.7289 381.221 52.8624C382.773 49.6184 384.984 46.9997 387.855 45.0063C390.765 43.013 394.412 42.0163 398.796 42.0163C404.577 42.0163 409.077 43.8533 412.298 47.5273C415.557 51.2013 417.186 56.6341 417.186 63.8258V107.327H406.362V67.4021C406.362 63.8062 405.974 60.8944 405.198 58.6666C404.422 56.4387 403.2 54.8167 401.531 53.8005C399.902 52.7452 397.729 52.2175 395.013 52.2175C391.599 52.2175 388.593 53.1751 385.993 55.0903C383.394 57.0054 381.24 59.6437 379.533 63.005V107.327H368.709V67.4607C368.709 63.8258 368.321 60.8944 367.545 58.6666C366.808 56.4387 365.605 54.8167 363.937 53.8005C362.269 52.7452 360.077 52.2175 357.361 52.2175C353.947 52.2175 350.94 53.1751 348.34 55.0903Z" fill="#FAFFF5"/>
<path fill-rule="evenodd" clip-rule="evenodd" d="M528.703 76.4307C527.5 76.4307 526.394 76.0789 525.386 75.3754C524.377 74.6328 523.873 73.6557 523.873 72.444V107.327H512.99V22.0829H538.538C548.237 22.0829 555.57 24.2131 560.536 28.4734C565.541 32.6945 568.043 39.2413 568.043 48.1136C568.043 51.9439 567.481 55.5593 566.356 58.9597C565.269 62.3601 563.543 65.3696 561.176 67.9883C558.848 70.607 555.822 72.6785 552.098 74.2029C548.373 75.6881 543.911 76.4307 538.713 76.4307H528.703ZM549.479 64.3534C547.073 65.7214 544.086 66.4054 540.517 66.4054H523.873V32.3428H539.586C545.017 32.3428 549.265 33.6326 552.33 36.2122C555.395 38.7527 556.928 42.9153 556.928 48.6999C556.928 52.452 556.288 55.657 555.007 58.3148C553.766 60.9335 551.923 62.9464 549.479 64.3534Z" fill="#FAFFF5"/>
<path d="M591.642 104.748C596.259 107.249 601.516 108.5 607.413 108.5C613.038 108.5 618.121 107.249 622.66 104.748C627.199 102.246 630.807 98.4551 633.484 93.3741C636.161 88.293 637.5 81.8831 637.5 74.1442V22.0829H626.443V74.2615C626.443 78.8344 625.919 82.6648 624.871 85.7525C623.824 88.8402 622.388 91.3026 620.565 93.1396C618.78 94.9766 616.763 96.3055 614.513 97.1262C612.262 97.9079 609.915 98.2988 607.471 98.2988C604.91 98.2988 602.466 97.9079 600.138 97.1262C597.81 96.3055 595.715 94.9766 593.853 93.1396C592.03 91.3026 590.575 88.8402 589.488 85.7525C588.441 82.6648 587.917 78.8344 587.917 74.2615V22.0829H576.802V74.1442C576.802 81.8831 578.121 88.293 580.759 93.3741C583.397 98.4551 587.025 102.246 591.642 104.748Z" fill="#FAFFF5"/>
<path d="M176.5 107.327V22.0829H224.977V32.3428H187.324V59.2528H221.369V69.2781H187.324V107.327H176.5Z" fill="#FAFFF5"/>
</svg>
