<svg width="299" height="299" viewBox="0 0 299 299" fill="none" xmlns="http://www.w3.org/2000/svg">
<path d="M135.871 83.0373C137.75 78.6355 137.481 73.4284 134.097 70.0441C112.96 48.9074 81.4868 46.1113 63.7993 63.799C46.1117 81.4867 48.9077 112.96 70.0443 134.097C73.4272 137.48 78.6322 137.749 83.0321 135.871C84.2598 135.347 85.4982 134.855 86.7453 134.397C92.6408 132.231 97.4928 127.809 100.563 122.329C105.634 113.28 113.143 105.782 122.2 100.724C127.733 97.6337 132.202 92.7385 134.384 86.7883C134.846 85.5284 135.342 84.2774 135.871 83.0373Z" fill="#091000"/>
<path d="M86.6406 164.563C92.5118 166.73 97.3285 171.162 100.344 176.646C105.466 185.963 113.16 193.665 122.47 198.797C127.906 201.794 132.299 206.573 134.451 212.396C134.894 213.594 135.367 214.783 135.871 215.963C137.75 220.365 137.48 225.571 134.096 228.955C112.96 250.092 81.4864 252.888 63.7989 235.2C46.1113 217.512 48.9073 186.039 70.0439 164.902C73.427 161.519 78.6323 161.25 83.0325 163.128C84.2257 163.638 85.429 164.116 86.6406 164.563Z" fill="#091000"/>
<path d="M164.552 212.388C166.704 206.562 171.096 201.781 176.532 198.779C185.819 193.652 193.496 185.965 198.612 176.671C201.635 171.179 206.462 166.74 212.344 164.571C213.562 164.122 214.77 163.641 215.969 163.129C220.369 161.251 225.574 161.52 228.956 164.903C250.093 186.04 252.889 217.513 235.201 235.201C217.514 252.889 186.04 250.093 164.904 228.956C161.52 225.572 161.25 220.364 163.129 215.963C163.634 214.78 164.108 213.588 164.552 212.388Z" fill="#091000"/>
<path d="M212.24 134.392C206.334 132.224 201.472 127.795 198.394 122.308C193.33 113.279 185.838 105.796 176.803 100.742C171.27 97.6476 166.803 92.7494 164.621 86.7972C164.157 85.5339 163.66 84.2795 163.129 83.0361C161.251 78.6352 161.52 73.4292 164.904 70.0457C186.04 48.9089 217.514 46.1129 235.201 63.8006C252.889 81.4883 250.093 112.962 228.956 134.098C225.574 137.481 220.369 137.751 215.969 135.872C214.736 135.346 213.493 134.852 212.24 134.392Z" fill="#091000"/>
<path fill-rule="evenodd" clip-rule="evenodd" d="M0 78.3975C0 50.9558 0 37.235 5.34052 26.7536C10.0382 17.534 17.534 10.0382 26.7536 5.34052C37.235 0 50.9559 0 78.3976 0H220.602C248.044 0 261.765 0 272.246 5.34052C281.466 10.0382 288.962 17.534 293.659 26.7536C299 37.235 299 50.9559 299 78.3976V220.602C299 248.044 299 261.765 293.659 272.246C288.962 281.466 281.466 288.962 272.246 293.659C261.765 299 248.044 299 220.602 299H78.3975C50.9558 299 37.235 299 26.7536 293.659C17.534 288.962 10.0382 281.466 5.34052 272.246C0 261.765 0 248.044 0 220.602V78.3975ZM51.718 51.7177C25.4316 78.0042 32.2594 120.474 57.9631 146.178C59.7846 148 59.7841 150.999 57.9626 152.821C32.2589 178.525 25.4312 220.995 51.7175 247.282C78.0039 273.568 120.474 266.74 146.178 241.036C148 239.214 151 239.215 152.822 241.037C178.526 266.741 220.996 273.569 247.283 247.282C273.569 220.996 266.741 178.525 241.037 152.822C239.216 151 239.216 148.001 241.037 146.18C266.741 120.476 273.569 78.0058 247.283 51.7192C220.996 25.4327 178.526 32.2604 152.822 57.9643C151.001 59.7861 148 59.7846 146.178 57.9627C120.474 32.2588 78.0043 25.4311 51.718 51.7177Z" fill="#091000"/>
</svg>
