<svg width="128" height="128" viewBox="0 0 128 128" fill="none" xmlns="http://www.w3.org/2000/svg">
<path fill-rule="evenodd" clip-rule="evenodd" d="M94.4385 5.95908H33.5615C27.5894 5.95908 23.4686 5.96371 20.2698 6.22506C17.1405 6.48074 15.4219 6.95207 14.1584 7.59582C11.3328 9.03553 9.03553 11.3328 7.59582 14.1584C6.95207 15.4219 6.48074 17.1405 6.22506 20.2698C5.96371 23.4686 5.95908 27.5893 5.95908 33.5615V94.4385C5.95908 100.411 5.96371 104.531 6.22506 107.73C6.48074 110.859 6.95207 112.578 7.59582 113.842C9.03553 116.667 11.3328 118.964 14.1584 120.404C15.4219 121.048 17.1405 121.519 20.2698 121.775C23.4686 122.036 27.5893 122.041 33.5615 122.041H94.4385C100.411 122.041 104.531 122.036 107.73 121.775C110.859 121.519 112.578 121.048 113.842 120.404C116.667 118.964 118.964 116.667 120.404 113.842C121.048 112.578 121.519 110.859 121.775 107.73C122.036 104.531 122.041 100.411 122.041 94.4385V33.5615C122.041 27.5894 122.036 23.4686 121.775 20.2698C121.519 17.1405 121.048 15.4219 120.404 14.1584C118.964 11.3328 116.667 9.03553 113.842 7.59582C112.578 6.95207 110.859 6.48074 107.73 6.22506C104.531 5.96371 100.411 5.95908 94.4385 5.95908ZM2.28624 11.4531C0 15.9401 0 21.8139 0 33.5615V94.4385C0 106.186 0 112.06 2.28624 116.547C4.29728 120.494 7.50619 123.703 11.4531 125.714C15.9401 128 21.8139 128 33.5615 128H94.4385C106.186 128 112.06 128 116.547 125.714C120.494 123.703 123.703 120.494 125.714 116.547C128 112.06 128 106.186 128 94.4385V33.5615C128 21.8139 128 15.9401 125.714 11.4531C123.703 7.50619 120.494 4.29728 116.547 2.28624C112.06 0 106.186 0 94.4385 0H33.5615C21.8139 0 15.9401 0 11.4531 2.28624C7.50619 4.29728 4.29728 7.50619 2.28624 11.4531Z" fill="#FAFFF5"/>
<path fill-rule="evenodd" clip-rule="evenodd" d="M24.8136 62.578C13.81 51.5744 10.8871 33.3931 22.1401 22.14C33.3932 10.8869 51.5743 13.8098 62.5779 24.8135C63.3578 25.5934 64.6424 25.5941 65.4223 24.8142C76.4259 13.8105 94.607 10.8876 105.86 22.1407C117.113 33.3938 114.19 51.575 103.187 62.5787C102.407 63.3585 102.407 64.6422 103.187 65.422C114.19 76.4256 117.113 94.6069 105.86 105.86C94.607 117.113 76.4259 114.19 65.4223 103.187C64.6423 102.406 63.3577 102.406 62.5777 103.186C51.5741 114.19 33.393 117.113 22.1399 105.86C10.8869 94.6066 13.8098 76.4253 24.8134 65.4216C25.5932 64.6418 25.5934 63.3578 24.8136 62.578ZM57.4059 29.9855C58.8547 31.4342 58.97 33.6634 58.1657 35.5477C57.939 36.0786 57.7267 36.6142 57.5288 37.1535C56.5946 39.7008 54.6818 41.7964 52.313 43.1193C48.4357 45.2846 45.2213 48.4946 43.0505 52.3685C41.736 54.714 39.6589 56.6073 37.1351 57.5345C36.6012 57.7307 36.0711 57.9411 35.5455 58.1655C33.662 58.9696 31.4337 58.8543 29.9855 57.4061C20.9371 48.3576 19.7401 34.884 27.3121 27.312C34.884 19.74 48.3575 20.9369 57.4059 29.9855ZM42.9565 75.6212C41.6657 73.2735 39.6037 71.3762 37.0903 70.4486C36.5716 70.2571 36.0565 70.0522 35.5457 69.8342C33.662 69.03 31.4336 69.1453 29.9853 70.5936C20.9369 79.6421 19.7399 93.1157 27.3119 100.688C34.8838 108.26 48.3573 107.063 57.4057 98.0142C58.8544 96.5656 58.9697 94.3367 58.1655 92.4525C57.9499 91.9474 57.7472 91.4382 57.5577 90.9255C56.6362 88.4326 54.7559 86.3868 52.4284 85.1038C48.443 82.9067 45.1492 79.6094 42.9565 75.6212ZM75.5724 85.0961C73.245 86.3811 71.365 88.4281 70.4436 90.9218C70.2537 91.4357 70.0505 91.9461 69.8345 92.4522C69.0302 94.3366 69.1455 96.5658 70.5943 98.0145C79.6427 107.063 93.1162 108.26 100.688 100.688C108.26 93.116 107.063 79.6424 98.0147 70.5939C96.5666 69.1458 94.3385 69.0305 92.4551 69.8346C91.9419 70.0537 91.4243 70.2595 90.9032 70.4517C88.3851 71.3804 86.3189 73.2805 85.0247 75.6317C82.8345 79.6105 79.5481 82.901 75.5724 85.0961ZM84.9312 52.3592C86.249 54.7082 88.3302 56.6042 90.8586 57.5325C91.3948 57.7294 91.9272 57.9407 92.4551 58.1661C94.3385 58.9702 96.5666 58.8548 98.0147 57.4067C107.063 48.3582 108.26 34.8846 100.688 27.3126C93.1162 19.7407 79.6427 20.9376 70.5943 29.9861C69.1458 31.4346 69.0304 33.6633 69.8346 35.5472C70.0618 36.0796 70.2747 36.6165 70.473 37.1573C71.4071 39.7054 73.3195 41.8023 75.6881 43.1272C79.5559 45.2907 82.7632 48.4942 84.9312 52.3592Z" fill="#FAFFF5"/>
</svg>
